<?xml version="1.0" standalone="no"?>
<!DOCTYPE svg PUBLIC "-//W3C//DTD SVG 20010904//EN"
 "http://www.w3.org/TR/2001/REC-SVG-20010904/DTD/svg10.dtd">
<svg version="1.0" xmlns="http://www.w3.org/2000/svg"
 width="256.000000pt" height="256.000000pt" viewBox="0 0 256.000000 256.000000"
 preserveAspectRatio="xMidYMid meet">

<g transform="translate(0.000000,256.000000) scale(0.100000,-0.100000)"
fill="rgba(255, 255, 255, 0.38)" stroke="none">
<path d="M1032 2229 c-84 -14 -200 -56 -282 -102 -103 -57 -260 -214 -317
-317 -244 -437 -72 -981 378 -1195 261 -123 587 -101 822 55 l61 41 185 -184
c102 -102 196 -190 208 -196 42 -21 83 -13 119 23 36 36 44 77 23 119 -6 12
-94 106 -196 208 l-184 185 41 61 c156 235 178 561 55 822 -93 196 -261 352
-465 434 -128 50 -309 69 -448 46z m340 -235 c153 -48 291 -166 368 -315 56
-108 73 -189 67 -324 -7 -170 -63 -299 -183 -419 -120 -120 -249 -176 -419
-183 -135 -6 -216 11 -324 67 -100 52 -177 122 -240 216 -71 106 -103 210
-104 339 -1 121 12 184 65 295 33 68 57 101 122 166 110 110 210 159 386 188
52 9 188 -7 262 -30z"/>
</g>
</svg>
